<mxfile host="65bd71144e">
    <diagram id="nWvufZdXXV8VyE-WNwWb" name="ER Diagram">
        <mxGraphModel dx="1430" dy="1127" grid="1" gridSize="10" guides="1" tooltips="1" connect="1" arrows="1" fold="1" page="1" pageScale="1" pageWidth="300" pageHeight="300" math="0" shadow="0">
            <root>
                <mxCell id="0"/>
                <mxCell id="1" parent="0"/>
                <mxCell id="120" style="edgeStyle=none;html=1;exitX=1;exitY=1;exitDx=0;exitDy=0;endArrow=none;endFill=0;shape=link;entryX=1;entryY=0.75;entryDx=0;entryDy=0;" parent="1" source="118" target="110" edge="1">
                    <mxGeometry relative="1" as="geometry">
                        <mxPoint x="320" y="190" as="targetPoint"/>
                    </mxGeometry>
                </mxCell>
                <mxCell id="166" value="ID" style="ellipse;whiteSpace=wrap;html=1;" parent="1" vertex="1">
                    <mxGeometry x="-25" y="539" width="80" height="30" as="geometry"/>
                </mxCell>
                <mxCell id="43" style="edgeStyle=none;html=1;exitX=1;exitY=0.5;exitDx=0;exitDy=0;entryX=0;entryY=0.5;entryDx=0;entryDy=0;endArrow=none;endFill=0;" parent="1" source="2" target="42" edge="1">
                    <mxGeometry relative="1" as="geometry"/>
                </mxCell>
                <mxCell id="119" style="edgeStyle=none;html=1;exitX=0.75;exitY=1;exitDx=0;exitDy=0;entryX=0;entryY=0.5;entryDx=0;entryDy=0;endArrow=none;endFill=0;" parent="1" source="2" target="118" edge="1">
                    <mxGeometry relative="1" as="geometry"/>
                </mxCell>
                <mxCell id="217" style="edgeStyle=none;html=1;exitX=1;exitY=0.75;exitDx=0;exitDy=0;entryX=0;entryY=0;entryDx=0;entryDy=0;endArrow=none;endFill=0;" parent="1" source="2" target="118" edge="1">
                    <mxGeometry relative="1" as="geometry"/>
                </mxCell>
                <mxCell id="2" value="Player" style="rounded=0;whiteSpace=wrap;html=1;" parent="1" vertex="1">
                    <mxGeometry x="45" y="60" width="80" height="30" as="geometry"/>
                </mxCell>
                <mxCell id="6" style="edgeStyle=none;html=1;exitX=0.5;exitY=1;exitDx=0;exitDy=0;entryX=0.5;entryY=0;entryDx=0;entryDy=0;endArrow=none;endFill=0;" parent="1" source="3" target="2" edge="1">
                    <mxGeometry relative="1" as="geometry"/>
                </mxCell>
                <mxCell id="3" value="&lt;u&gt;username&lt;/u&gt;" style="ellipse;whiteSpace=wrap;html=1;" parent="1" vertex="1">
                    <mxGeometry y="20" width="80" height="30" as="geometry"/>
                </mxCell>
                <mxCell id="7" style="edgeStyle=none;html=1;exitX=0.5;exitY=1;exitDx=0;exitDy=0;entryX=0.5;entryY=0;entryDx=0;entryDy=0;endArrow=none;endFill=0;" parent="1" source="5" target="2" edge="1">
                    <mxGeometry relative="1" as="geometry">
                        <mxPoint x="90" y="110" as="targetPoint"/>
                    </mxGeometry>
                </mxCell>
                <mxCell id="5" value="history" style="ellipse;shape=doubleEllipse;margin=3;whiteSpace=wrap;html=1;align=center;" parent="1" vertex="1">
                    <mxGeometry x="90" y="20" width="80" height="30" as="geometry"/>
                </mxCell>
                <mxCell id="8" value="AI" style="rounded=0;whiteSpace=wrap;html=1;" parent="1" vertex="1">
                    <mxGeometry x="-133" y="165" width="80" height="30" as="geometry"/>
                </mxCell>
                <mxCell id="15" style="edgeStyle=none;html=1;exitX=0.5;exitY=0;exitDx=0;exitDy=0;entryX=0.5;entryY=1;entryDx=0;entryDy=0;endArrow=none;endFill=0;" parent="1" source="10" target="12" edge="1">
                    <mxGeometry relative="1" as="geometry"/>
                </mxCell>
                <mxCell id="20" style="edgeStyle=none;html=1;exitX=1;exitY=0.5;exitDx=0;exitDy=0;entryX=0;entryY=0.5;entryDx=0;entryDy=0;endArrow=none;endFill=0;" parent="1" source="10" target="19" edge="1">
                    <mxGeometry relative="1" as="geometry"/>
                </mxCell>
                <mxCell id="22" style="edgeStyle=none;html=1;exitX=0.75;exitY=0;exitDx=0;exitDy=0;entryX=0;entryY=1;entryDx=0;entryDy=0;endArrow=none;endFill=0;" parent="1" source="10" target="21" edge="1">
                    <mxGeometry relative="1" as="geometry"/>
                </mxCell>
                <mxCell id="128" style="edgeStyle=none;html=1;exitX=1;exitY=1;exitDx=0;exitDy=0;endArrow=none;endFill=0;startArrow=none;entryX=0.5;entryY=0;entryDx=0;entryDy=0;shape=link;" parent="1" source="155" target="154" edge="1">
                    <mxGeometry relative="1" as="geometry">
                        <mxPoint x="-13" y="480" as="targetPoint"/>
                        <mxPoint x="-80" y="360" as="sourcePoint"/>
                    </mxGeometry>
                </mxCell>
                <mxCell id="144" style="edgeStyle=none;html=1;exitX=0.5;exitY=1;exitDx=0;exitDy=0;endArrow=none;endFill=0;entryX=0.113;entryY=0.412;entryDx=0;entryDy=0;entryPerimeter=0;" parent="1" source="10" target="145" edge="1">
                    <mxGeometry relative="1" as="geometry">
                        <mxPoint x="230" y="300" as="targetPoint"/>
                    </mxGeometry>
                </mxCell>
                <mxCell id="10" value="Human" style="rounded=0;whiteSpace=wrap;html=1;" parent="1" vertex="1">
                    <mxGeometry y="224" width="80" height="30" as="geometry"/>
                </mxCell>
                <mxCell id="13" style="edgeStyle=none;html=1;exitX=0.5;exitY=0;exitDx=0;exitDy=0;entryX=0.5;entryY=1;entryDx=0;entryDy=0;endArrow=none;endFill=0;shape=link;" parent="1" source="12" target="2" edge="1">
                    <mxGeometry relative="1" as="geometry"/>
                </mxCell>
                <mxCell id="14" style="edgeStyle=none;html=1;exitX=0.5;exitY=1;exitDx=0;exitDy=0;entryX=0.5;entryY=0;entryDx=0;entryDy=0;endArrow=none;endFill=0;" parent="1" source="12" target="8" edge="1">
                    <mxGeometry relative="1" as="geometry"/>
                </mxCell>
                <mxCell id="12" value="d" style="ellipse;whiteSpace=wrap;html=1;aspect=fixed;fontStyle=1" parent="1" vertex="1">
                    <mxGeometry x="66" y="110" width="20" height="20" as="geometry"/>
                </mxCell>
                <mxCell id="18" style="edgeStyle=none;html=1;exitX=0;exitY=0.5;exitDx=0;exitDy=0;entryX=1;entryY=0.5;entryDx=0;entryDy=0;endArrow=none;endFill=0;" parent="1" source="16" target="10" edge="1">
                    <mxGeometry relative="1" as="geometry"/>
                </mxCell>
                <mxCell id="16" value="birthday" style="ellipse;whiteSpace=wrap;html=1;" parent="1" vertex="1">
                    <mxGeometry x="108" y="237" width="80" height="30" as="geometry"/>
                </mxCell>
                <mxCell id="19" value="email" style="ellipse;whiteSpace=wrap;html=1;" parent="1" vertex="1">
                    <mxGeometry x="163" y="214" width="80" height="30" as="geometry"/>
                </mxCell>
                <mxCell id="21" value="country" style="ellipse;whiteSpace=wrap;html=1;" parent="1" vertex="1">
                    <mxGeometry x="68" y="169" width="80" height="30" as="geometry"/>
                </mxCell>
                <mxCell id="24" style="edgeStyle=none;html=1;exitX=0;exitY=0.5;exitDx=0;exitDy=0;endArrow=none;endFill=0;entryX=1;entryY=0.5;entryDx=0;entryDy=0;" parent="1" source="23" target="10" edge="1">
                    <mxGeometry relative="1" as="geometry">
                        <mxPoint x="80" y="220" as="targetPoint"/>
                    </mxGeometry>
                </mxCell>
                <mxCell id="23" value="password" style="ellipse;whiteSpace=wrap;html=1;" parent="1" vertex="1">
                    <mxGeometry x="90" y="199" width="80" height="30" as="geometry"/>
                </mxCell>
                <mxCell id="25" style="edgeStyle=none;html=1;exitX=0.5;exitY=0;exitDx=0;exitDy=0;entryX=0.5;entryY=1;entryDx=0;entryDy=0;endArrow=none;endFill=0;" parent="1" source="26" target="8" edge="1">
                    <mxGeometry relative="1" as="geometry">
                        <mxPoint x="-173" y="220" as="targetPoint"/>
                    </mxGeometry>
                </mxCell>
                <mxCell id="26" value="api" style="ellipse;whiteSpace=wrap;html=1;" parent="1" vertex="1">
                    <mxGeometry x="-160" y="210" width="80" height="30" as="geometry"/>
                </mxCell>
                <mxCell id="83" style="edgeStyle=none;html=1;exitX=0.5;exitY=1;exitDx=0;exitDy=0;endArrow=none;endFill=0;" parent="1" target="171" edge="1">
                    <mxGeometry relative="1" as="geometry">
                        <mxPoint x="470" y="90" as="sourcePoint"/>
                        <mxPoint x="484" y="143" as="targetPoint"/>
                    </mxGeometry>
                </mxCell>
                <mxCell id="99" style="edgeStyle=none;html=1;exitX=0.5;exitY=0;exitDx=0;exitDy=0;entryX=1;entryY=1;entryDx=0;entryDy=0;endArrow=none;endFill=0;" parent="1" target="98" edge="1">
                    <mxGeometry relative="1" as="geometry">
                        <mxPoint x="470" y="60" as="sourcePoint"/>
                    </mxGeometry>
                </mxCell>
                <mxCell id="101" style="edgeStyle=none;html=1;exitX=0.5;exitY=0;exitDx=0;exitDy=0;entryX=0;entryY=1;entryDx=0;entryDy=0;endArrow=none;endFill=0;" parent="1" target="100" edge="1">
                    <mxGeometry relative="1" as="geometry">
                        <mxPoint x="470" y="60" as="sourcePoint"/>
                    </mxGeometry>
                </mxCell>
                <mxCell id="109" style="edgeStyle=none;html=1;exitX=0.5;exitY=0;exitDx=0;exitDy=0;entryX=0;entryY=1;entryDx=0;entryDy=0;endArrow=none;endFill=0;" parent="1" target="108" edge="1">
                    <mxGeometry relative="1" as="geometry">
                        <mxPoint x="470" y="60" as="sourcePoint"/>
                    </mxGeometry>
                </mxCell>
                <mxCell id="113" style="edgeStyle=none;html=1;exitX=0.5;exitY=1;exitDx=0;exitDy=0;entryX=1;entryY=0;entryDx=0;entryDy=0;endArrow=none;endFill=0;" parent="1" target="112" edge="1">
                    <mxGeometry relative="1" as="geometry">
                        <mxPoint x="470" y="90" as="sourcePoint"/>
                    </mxGeometry>
                </mxCell>
                <mxCell id="38" style="edgeStyle=none;html=1;exitX=0.5;exitY=0;exitDx=0;exitDy=0;entryX=1;entryY=1;entryDx=0;entryDy=0;endArrow=none;endFill=0;" parent="1" target="40" edge="1">
                    <mxGeometry relative="1" as="geometry">
                        <mxPoint x="470" y="60" as="sourcePoint"/>
                    </mxGeometry>
                </mxCell>
                <mxCell id="39" style="edgeStyle=none;html=1;entryX=1;entryY=1;entryDx=0;entryDy=0;endArrow=none;endFill=0;exitX=0.5;exitY=0;exitDx=0;exitDy=0;" parent="1" target="41" edge="1">
                    <mxGeometry relative="1" as="geometry">
                        <mxPoint x="470" y="60" as="sourcePoint"/>
                    </mxGeometry>
                </mxCell>
                <mxCell id="40" value="ID" style="ellipse;whiteSpace=wrap;html=1;fontStyle=4" parent="1" vertex="1">
                    <mxGeometry x="384" y="20" width="80" height="30" as="geometry"/>
                </mxCell>
                <mxCell id="41" value="is_public" style="ellipse;whiteSpace=wrap;html=1;" parent="1" vertex="1">
                    <mxGeometry x="416" y="-44" width="80" height="30" as="geometry"/>
                </mxCell>
                <mxCell id="44" style="edgeStyle=none;html=1;exitX=1;exitY=0.5;exitDx=0;exitDy=0;entryX=0;entryY=0.5;entryDx=0;entryDy=0;endArrow=none;endFill=0;" parent="1" source="42" edge="1">
                    <mxGeometry relative="1" as="geometry">
                        <mxPoint x="430" y="75" as="targetPoint"/>
                    </mxGeometry>
                </mxCell>
                <mxCell id="91" style="edgeStyle=none;html=1;exitX=0.5;exitY=0;exitDx=0;exitDy=0;entryX=0.5;entryY=1;entryDx=0;entryDy=0;endArrow=none;endFill=0;" parent="1" source="42" target="90" edge="1">
                    <mxGeometry relative="1" as="geometry"/>
                </mxCell>
                <mxCell id="42" value="Participates" style="rhombus;whiteSpace=wrap;html=1;" parent="1" vertex="1">
                    <mxGeometry x="240" y="35" width="80" height="80" as="geometry"/>
                </mxCell>
                <mxCell id="65" style="edgeStyle=none;html=1;exitX=0;exitY=0.5;exitDx=0;exitDy=0;endArrow=none;endFill=0;shape=link;" parent="1" source="49" target="63" edge="1">
                    <mxGeometry relative="1" as="geometry"/>
                </mxCell>
                <mxCell id="78" style="edgeStyle=none;html=1;exitX=0.5;exitY=1;exitDx=0;exitDy=0;entryX=0.5;entryY=0;entryDx=0;entryDy=0;endArrow=none;endFill=0;" parent="1" source="49" target="76" edge="1">
                    <mxGeometry relative="1" as="geometry"/>
                </mxCell>
                <mxCell id="84" style="edgeStyle=none;html=1;exitX=1;exitY=0;exitDx=0;exitDy=0;entryX=0;entryY=1;entryDx=0;entryDy=0;endArrow=none;endFill=0;" parent="1" source="49" target="171" edge="1">
                    <mxGeometry relative="1" as="geometry">
                        <mxPoint x="484" y="183" as="targetPoint"/>
                    </mxGeometry>
                </mxCell>
                <mxCell id="49" value="Team" style="rounded=0;whiteSpace=wrap;html=1;" parent="1" vertex="1">
                    <mxGeometry x="342" y="389" width="80" height="30" as="geometry"/>
                </mxCell>
                <mxCell id="72" style="edgeStyle=none;html=1;exitX=0.5;exitY=1;exitDx=0;exitDy=0;entryX=0.5;entryY=0;entryDx=0;entryDy=0;endArrow=none;endFill=0;" parent="1" source="63" target="71" edge="1">
                    <mxGeometry relative="1" as="geometry"/>
                </mxCell>
                <mxCell id="63" value="Moderates" style="rhombus;whiteSpace=wrap;html=1;" parent="1" vertex="1">
                    <mxGeometry x="176" y="332" width="80" height="80" as="geometry"/>
                </mxCell>
                <mxCell id="69" value="N" style="text;html=1;strokeColor=none;fillColor=none;align=center;verticalAlign=middle;whiteSpace=wrap;rounded=0;" parent="1" vertex="1">
                    <mxGeometry x="163" y="329" width="60" height="30" as="geometry"/>
                </mxCell>
                <mxCell id="70" value="1" style="text;html=1;strokeColor=none;fillColor=none;align=center;verticalAlign=middle;whiteSpace=wrap;rounded=0;" parent="1" vertex="1">
                    <mxGeometry x="238" y="359" width="60" height="30" as="geometry"/>
                </mxCell>
                <mxCell id="71" value="start_date" style="ellipse;whiteSpace=wrap;html=1;" parent="1" vertex="1">
                    <mxGeometry x="235" y="329" width="80" height="30" as="geometry"/>
                </mxCell>
                <mxCell id="76" value="&lt;u&gt;name&lt;/u&gt;" style="ellipse;whiteSpace=wrap;html=1;" parent="1" vertex="1">
                    <mxGeometry x="312" y="439" width="80" height="30" as="geometry"/>
                </mxCell>
                <mxCell id="79" style="edgeStyle=none;html=1;exitX=0.5;exitY=0;exitDx=0;exitDy=0;endArrow=none;endFill=0;" parent="1" source="77" edge="1">
                    <mxGeometry relative="1" as="geometry">
                        <mxPoint x="382" y="419.0000000000001" as="targetPoint"/>
                    </mxGeometry>
                </mxCell>
                <mxCell id="77" value="creation date" style="ellipse;whiteSpace=wrap;html=1;" parent="1" vertex="1">
                    <mxGeometry x="402" y="439" width="80" height="30" as="geometry"/>
                </mxCell>
                <mxCell id="80" value="N" style="text;html=1;strokeColor=none;fillColor=none;align=center;verticalAlign=middle;whiteSpace=wrap;rounded=0;" parent="1" vertex="1">
                    <mxGeometry x="205" y="50" width="60" height="30" as="geometry"/>
                </mxCell>
                <mxCell id="81" value="M" style="text;html=1;strokeColor=none;fillColor=none;align=center;verticalAlign=middle;whiteSpace=wrap;rounded=0;" parent="1" vertex="1">
                    <mxGeometry x="300" y="50" width="60" height="30" as="geometry"/>
                </mxCell>
                <mxCell id="85" value="1" style="text;html=1;strokeColor=none;fillColor=none;align=center;verticalAlign=middle;whiteSpace=wrap;rounded=0;" parent="1" vertex="1">
                    <mxGeometry x="499" y="200" width="60" height="30" as="geometry"/>
                </mxCell>
                <mxCell id="87" value="N" style="text;html=1;strokeColor=none;fillColor=none;align=center;verticalAlign=middle;whiteSpace=wrap;rounded=0;" parent="1" vertex="1">
                    <mxGeometry x="510" y="139" width="60" height="30" as="geometry"/>
                </mxCell>
                <mxCell id="90" value="results" style="ellipse;whiteSpace=wrap;html=1;" parent="1" vertex="1">
                    <mxGeometry x="239" y="-10" width="80" height="30" as="geometry"/>
                </mxCell>
                <mxCell id="95" style="edgeStyle=none;html=1;exitX=1;exitY=1;exitDx=0;exitDy=0;entryX=0.5;entryY=0;entryDx=0;entryDy=0;endArrow=none;endFill=0;" parent="1" source="92" target="90" edge="1">
                    <mxGeometry relative="1" as="geometry"/>
                </mxCell>
                <mxCell id="92" value="ranking" style="ellipse;whiteSpace=wrap;html=1;" parent="1" vertex="1">
                    <mxGeometry x="170" y="-40" width="80" height="30" as="geometry"/>
                </mxCell>
                <mxCell id="96" style="edgeStyle=none;html=1;exitX=0.5;exitY=1;exitDx=0;exitDy=0;endArrow=none;endFill=0;entryX=0.5;entryY=0;entryDx=0;entryDy=0;" parent="1" source="93" target="90" edge="1">
                    <mxGeometry relative="1" as="geometry">
                        <mxPoint x="260" y="-10" as="targetPoint"/>
                    </mxGeometry>
                </mxCell>
                <mxCell id="93" value="score" style="ellipse;whiteSpace=wrap;html=1;" parent="1" vertex="1">
                    <mxGeometry x="235" y="-62" width="80" height="30" as="geometry"/>
                </mxCell>
                <mxCell id="97" style="edgeStyle=none;html=1;exitX=0;exitY=1;exitDx=0;exitDy=0;endArrow=none;endFill=0;entryX=0.5;entryY=0;entryDx=0;entryDy=0;" parent="1" source="94" target="90" edge="1">
                    <mxGeometry relative="1" as="geometry">
                        <mxPoint x="280" y="-14.347826086956502" as="targetPoint"/>
                    </mxGeometry>
                </mxCell>
                <mxCell id="94" value="performace" style="ellipse;whiteSpace=wrap;html=1;" parent="1" vertex="1">
                    <mxGeometry x="300" y="-40" width="80" height="30" as="geometry"/>
                </mxCell>
                <mxCell id="98" value="is_rated" style="ellipse;whiteSpace=wrap;html=1;" parent="1" vertex="1">
                    <mxGeometry x="394" y="-13" width="80" height="30" as="geometry"/>
                </mxCell>
                <mxCell id="104" style="edgeStyle=none;html=1;exitX=1;exitY=0.5;exitDx=0;exitDy=0;entryX=0;entryY=1;entryDx=0;entryDy=0;endArrow=none;endFill=0;" parent="1" source="100" target="102" edge="1">
                    <mxGeometry relative="1" as="geometry"/>
                </mxCell>
                <mxCell id="105" style="edgeStyle=none;html=1;exitX=1;exitY=0.5;exitDx=0;exitDy=0;entryX=0;entryY=0;entryDx=0;entryDy=0;endArrow=none;endFill=0;" parent="1" source="100" target="103" edge="1">
                    <mxGeometry relative="1" as="geometry"/>
                </mxCell>
                <mxCell id="100" value="time_control" style="ellipse;whiteSpace=wrap;html=1;" parent="1" vertex="1">
                    <mxGeometry x="510" y="20" width="80" height="30" as="geometry"/>
                </mxCell>
                <mxCell id="102" value="initial_limit" style="ellipse;whiteSpace=wrap;html=1;" parent="1" vertex="1">
                    <mxGeometry x="590" y="5" width="80" height="30" as="geometry"/>
                </mxCell>
                <mxCell id="103" value="increment" style="ellipse;whiteSpace=wrap;html=1;" parent="1" vertex="1">
                    <mxGeometry x="591" y="40" width="80" height="30" as="geometry"/>
                </mxCell>
                <mxCell id="107" style="edgeStyle=none;html=1;exitX=0;exitY=1;exitDx=0;exitDy=0;entryX=0.5;entryY=0;entryDx=0;entryDy=0;endArrow=none;endFill=0;" parent="1" source="106" edge="1">
                    <mxGeometry relative="1" as="geometry">
                        <mxPoint x="470" y="60" as="targetPoint"/>
                    </mxGeometry>
                </mxCell>
                <mxCell id="106" value="start_datetime" style="ellipse;whiteSpace=wrap;html=1;" parent="1" vertex="1">
                    <mxGeometry x="499" y="-51" width="80" height="30" as="geometry"/>
                </mxCell>
                <mxCell id="108" value="end_datetime" style="ellipse;whiteSpace=wrap;html=1;" parent="1" vertex="1">
                    <mxGeometry x="511" y="-14" width="80" height="30" as="geometry"/>
                </mxCell>
                <mxCell id="152" style="edgeStyle=none;html=1;exitX=0.5;exitY=1;exitDx=0;exitDy=0;entryX=0.5;entryY=0;entryDx=0;entryDy=0;endArrow=none;endFill=0;" parent="1" source="110" target="151" edge="1">
                    <mxGeometry relative="1" as="geometry"/>
                </mxCell>
                <mxCell id="185" style="edgeStyle=none;html=1;exitX=0.5;exitY=1;exitDx=0;exitDy=0;entryX=0;entryY=0.5;entryDx=0;entryDy=0;endArrow=none;endFill=0;" parent="1" source="110" target="182" edge="1">
                    <mxGeometry relative="1" as="geometry"/>
                </mxCell>
                <mxCell id="200" style="edgeStyle=none;html=1;exitX=0.5;exitY=1;exitDx=0;exitDy=0;entryX=0;entryY=0;entryDx=0;entryDy=0;endArrow=none;endFill=0;" parent="1" source="110" target="199" edge="1">
                    <mxGeometry relative="1" as="geometry"/>
                </mxCell>
                <mxCell id="110" value="Game" style="rounded=0;whiteSpace=wrap;html=1;" parent="1" vertex="1">
                    <mxGeometry x="251" y="186" width="80" height="30" as="geometry"/>
                </mxCell>
                <mxCell id="114" style="edgeStyle=none;html=1;exitX=0;exitY=1;exitDx=0;exitDy=0;entryX=0.5;entryY=0;entryDx=0;entryDy=0;endArrow=none;endFill=0;" parent="1" source="112" target="110" edge="1">
                    <mxGeometry relative="1" as="geometry"/>
                </mxCell>
                <mxCell id="112" value="Part_of" style="rhombus;whiteSpace=wrap;html=1;" parent="1" vertex="1">
                    <mxGeometry x="350" y="103" width="80" height="80" as="geometry"/>
                </mxCell>
                <mxCell id="115" value="N" style="text;html=1;strokeColor=none;fillColor=none;align=center;verticalAlign=middle;whiteSpace=wrap;rounded=0;" parent="1" vertex="1">
                    <mxGeometry x="403" y="108" width="60" height="30" as="geometry"/>
                </mxCell>
                <mxCell id="116" value="1" style="text;html=1;strokeColor=none;fillColor=none;align=center;verticalAlign=middle;whiteSpace=wrap;rounded=0;" parent="1" vertex="1">
                    <mxGeometry x="303" y="147" width="60" height="30" as="geometry"/>
                </mxCell>
                <mxCell id="118" value="Plays" style="rhombus;whiteSpace=wrap;html=1;" parent="1" vertex="1">
                    <mxGeometry x="190" y="114" width="80" height="80" as="geometry"/>
                </mxCell>
                <mxCell id="122" value="N" style="text;html=1;strokeColor=none;fillColor=none;align=center;verticalAlign=middle;whiteSpace=wrap;rounded=0;" parent="1" vertex="1">
                    <mxGeometry x="256" y="165" width="47" height="12" as="geometry"/>
                </mxCell>
                <mxCell id="134" style="edgeStyle=none;html=1;exitX=0.5;exitY=1;exitDx=0;exitDy=0;endArrow=none;endFill=0;" parent="1" source="10" target="63" edge="1">
                    <mxGeometry relative="1" as="geometry">
                        <mxPoint x="68" y="325" as="sourcePoint"/>
                    </mxGeometry>
                </mxCell>
                <mxCell id="141" style="edgeStyle=none;html=1;entryX=0.5;entryY=0;entryDx=0;entryDy=0;endArrow=none;endFill=0;exitX=0.5;exitY=1;exitDx=0;exitDy=0;" parent="1" source="10" target="138" edge="1">
                    <mxGeometry relative="1" as="geometry">
                        <mxPoint x="40" y="250" as="sourcePoint"/>
                    </mxGeometry>
                </mxCell>
                <mxCell id="136" value="" style="edgeStyle=none;html=1;exitX=0.5;exitY=1;exitDx=0;exitDy=0;endArrow=none;endFill=0;entryX=1;entryY=0;entryDx=0;entryDy=0;" parent="1" source="10" target="155" edge="1">
                    <mxGeometry relative="1" as="geometry">
                        <mxPoint x="-78.4946236559141" y="321.50537634408613" as="targetPoint"/>
                        <mxPoint x="-13" y="243" as="sourcePoint"/>
                    </mxGeometry>
                </mxCell>
                <mxCell id="142" style="edgeStyle=none;html=1;exitX=0;exitY=1;exitDx=0;exitDy=0;entryX=0.5;entryY=0;entryDx=0;entryDy=0;endArrow=none;endFill=0;" parent="1" source="138" target="154" edge="1">
                    <mxGeometry relative="1" as="geometry">
                        <mxPoint x="-13" y="480" as="targetPoint"/>
                    </mxGeometry>
                </mxCell>
                <mxCell id="138" value="Approves" style="rhombus;whiteSpace=wrap;html=1;" parent="1" vertex="1">
                    <mxGeometry x="-13" y="370" width="80" height="80" as="geometry"/>
                </mxCell>
                <mxCell id="146" style="edgeStyle=none;html=1;exitX=1;exitY=1;exitDx=0;exitDy=0;entryX=0.5;entryY=0;entryDx=0;entryDy=0;endArrow=none;endFill=0;shape=link;" parent="1" source="145" target="49" edge="1">
                    <mxGeometry relative="1" as="geometry"/>
                </mxCell>
                <mxCell id="147" style="edgeStyle=none;html=1;exitX=0;exitY=0;exitDx=0;exitDy=0;endArrow=none;endFill=0;entryX=1;entryY=1;entryDx=0;entryDy=0;" parent="1" source="145" target="148" edge="1">
                    <mxGeometry relative="1" as="geometry">
                        <mxPoint x="290" y="290" as="targetPoint"/>
                    </mxGeometry>
                </mxCell>
                <mxCell id="145" value="Belong_to" style="rhombus;whiteSpace=wrap;html=1;" parent="1" vertex="1">
                    <mxGeometry x="312" y="285" width="80" height="80" as="geometry"/>
                </mxCell>
                <mxCell id="148" value="join_date" style="ellipse;whiteSpace=wrap;html=1;" parent="1" vertex="1">
                    <mxGeometry x="243" y="270" width="80" height="30" as="geometry"/>
                </mxCell>
                <mxCell id="151" value="&lt;u&gt;pgn_id&lt;/u&gt;" style="ellipse;whiteSpace=wrap;html=1;" parent="1" vertex="1">
                    <mxGeometry x="244" y="229" width="80" height="30" as="geometry"/>
                </mxCell>
                <mxCell id="168" style="edgeStyle=none;html=1;exitX=0.5;exitY=1;exitDx=0;exitDy=0;entryX=0.5;entryY=0;entryDx=0;entryDy=0;strokeWidth=1;endArrow=none;endFill=0;" parent="1" source="154" target="166" edge="1">
                    <mxGeometry relative="1" as="geometry"/>
                </mxCell>
                <mxCell id="170" style="edgeStyle=none;html=1;exitX=0.5;exitY=1;exitDx=0;exitDy=0;entryX=0.5;entryY=0;entryDx=0;entryDy=0;strokeWidth=1;endArrow=none;endFill=0;" parent="1" source="154" target="169" edge="1">
                    <mxGeometry relative="1" as="geometry"/>
                </mxCell>
                <mxCell id="154" value="Application" style="shape=ext;margin=3;double=1;whiteSpace=wrap;html=1;align=center;" parent="1" vertex="1">
                    <mxGeometry x="-60" y="480" width="80" height="30" as="geometry"/>
                </mxCell>
                <mxCell id="155" value="Creates" style="shape=rhombus;double=1;perimeter=rhombusPerimeter;whiteSpace=wrap;html=1;align=center;" parent="1" vertex="1">
                    <mxGeometry x="-140" y="300" width="80" height="80" as="geometry"/>
                </mxCell>
                <mxCell id="161" style="edgeStyle=none;html=1;exitX=0;exitY=0.5;exitDx=0;exitDy=0;entryX=1;entryY=0.5;entryDx=0;entryDy=0;endArrow=none;endFill=0;shape=link;" parent="1" source="162" target="154" edge="1">
                    <mxGeometry relative="1" as="geometry">
                        <mxPoint x="95" y="470" as="sourcePoint"/>
                        <mxPoint x="68" y="520" as="targetPoint"/>
                    </mxGeometry>
                </mxCell>
                <mxCell id="163" style="edgeStyle=none;html=1;exitX=1;exitY=0;exitDx=0;exitDy=0;entryX=0;entryY=0.5;entryDx=0;entryDy=0;endArrow=none;endFill=0;" parent="1" source="162" target="49" edge="1">
                    <mxGeometry relative="1" as="geometry"/>
                </mxCell>
                <mxCell id="162" value="Apply_to" style="rhombus;whiteSpace=wrap;html=1;" parent="1" vertex="1">
                    <mxGeometry x="134" y="439" width="80" height="80" as="geometry"/>
                </mxCell>
                <mxCell id="165" value="" style="endArrow=none;dashed=1;html=1;strokeWidth=1;" parent="1" edge="1">
                    <mxGeometry width="50" height="50" relative="1" as="geometry">
                        <mxPoint x="7" y="561" as="sourcePoint"/>
                        <mxPoint x="22" y="561" as="targetPoint"/>
                    </mxGeometry>
                </mxCell>
                <mxCell id="169" value="Message" style="ellipse;whiteSpace=wrap;html=1;" parent="1" vertex="1">
                    <mxGeometry x="-110" y="539" width="80" height="30" as="geometry"/>
                </mxCell>
                <mxCell id="171" value="Hosts" style="rhombus;whiteSpace=wrap;html=1;strokeColor=default;" parent="1" vertex="1">
                    <mxGeometry x="520" y="150" width="80" height="80" as="geometry"/>
                </mxCell>
                <mxCell id="172" value="Tournament" style="rounded=0;whiteSpace=wrap;html=1;" parent="1" vertex="1">
                    <mxGeometry x="429" y="60" width="80" height="30" as="geometry"/>
                </mxCell>
                <mxCell id="174" value="N" style="text;html=1;strokeColor=none;fillColor=none;align=center;verticalAlign=middle;whiteSpace=wrap;rounded=0;" parent="1" vertex="1">
                    <mxGeometry x="-22" y="432" width="60" height="30" as="geometry"/>
                </mxCell>
                <mxCell id="175" value="1" style="text;html=1;strokeColor=none;fillColor=none;align=center;verticalAlign=middle;whiteSpace=wrap;rounded=0;" parent="1" vertex="1">
                    <mxGeometry x="6" y="350" width="60" height="30" as="geometry"/>
                </mxCell>
                <mxCell id="176" value="N" style="text;html=1;strokeColor=none;fillColor=none;align=center;verticalAlign=middle;whiteSpace=wrap;rounded=0;" parent="1" vertex="1">
                    <mxGeometry x="96" y="450" width="60" height="30" as="geometry"/>
                </mxCell>
                <mxCell id="177" value="1" style="text;html=1;strokeColor=none;fillColor=none;align=center;verticalAlign=middle;whiteSpace=wrap;rounded=0;" parent="1" vertex="1">
                    <mxGeometry x="166" y="430" width="60" height="30" as="geometry"/>
                </mxCell>
                <mxCell id="178" value="1" style="text;html=1;strokeColor=none;fillColor=none;align=center;verticalAlign=middle;whiteSpace=wrap;rounded=0;" parent="1" vertex="1">
                    <mxGeometry x="-107" y="292" width="60" height="30" as="geometry"/>
                </mxCell>
                <mxCell id="179" value="N" style="text;html=1;strokeColor=none;fillColor=none;align=center;verticalAlign=middle;whiteSpace=wrap;rounded=0;" parent="1" vertex="1">
                    <mxGeometry x="-95" y="351" width="60" height="30" as="geometry"/>
                </mxCell>
                <mxCell id="180" style="edgeStyle=none;html=1;exitX=1;exitY=0.5;exitDx=0;exitDy=0;entryX=0;entryY=1;entryDx=0;entryDy=0;endArrow=none;endFill=0;" parent="1" source="182" target="183" edge="1">
                    <mxGeometry relative="1" as="geometry"/>
                </mxCell>
                <mxCell id="181" style="edgeStyle=none;html=1;exitX=1;exitY=0.5;exitDx=0;exitDy=0;entryX=0;entryY=0;entryDx=0;entryDy=0;endArrow=none;endFill=0;" parent="1" source="182" target="184" edge="1">
                    <mxGeometry relative="1" as="geometry"/>
                </mxCell>
                <mxCell id="182" value="time_control" style="ellipse;whiteSpace=wrap;html=1;" parent="1" vertex="1">
                    <mxGeometry x="338" y="210" width="80" height="30" as="geometry"/>
                </mxCell>
                <mxCell id="183" value="initial_limit" style="ellipse;whiteSpace=wrap;html=1;" parent="1" vertex="1">
                    <mxGeometry x="418" y="195" width="80" height="30" as="geometry"/>
                </mxCell>
                <mxCell id="184" value="increment" style="ellipse;whiteSpace=wrap;html=1;" parent="1" vertex="1">
                    <mxGeometry x="419" y="230" width="80" height="30" as="geometry"/>
                </mxCell>
                <mxCell id="187" value="N" style="text;html=1;strokeColor=none;fillColor=none;align=center;verticalAlign=middle;whiteSpace=wrap;rounded=0;" parent="1" vertex="1">
                    <mxGeometry x="270" y="306" width="60" height="30" as="geometry"/>
                </mxCell>
                <mxCell id="188" value="1" style="text;html=1;strokeColor=none;fillColor=none;align=center;verticalAlign=middle;whiteSpace=wrap;rounded=0;" parent="1" vertex="1">
                    <mxGeometry x="350" y="335" width="60" height="30" as="geometry"/>
                </mxCell>
                <mxCell id="192" style="edgeStyle=none;html=1;exitX=0;exitY=1;exitDx=0;exitDy=0;entryX=1;entryY=0;entryDx=0;entryDy=0;endArrow=none;endFill=0;" parent="1" source="190" target="191" edge="1">
                    <mxGeometry relative="1" as="geometry"/>
                </mxCell>
                <mxCell id="216" style="edgeStyle=none;html=1;exitX=0.5;exitY=0;exitDx=0;exitDy=0;entryX=0.699;entryY=0.932;entryDx=0;entryDy=0;entryPerimeter=0;endArrow=none;endFill=0;fontStyle=4" parent="1" source="190" target="215" edge="1">
                    <mxGeometry relative="1" as="geometry"/>
                </mxCell>
                <mxCell id="190" value="Puzzle" style="rounded=0;whiteSpace=wrap;html=1;" parent="1" vertex="1">
                    <mxGeometry x="-60" y="-40" width="80" height="30" as="geometry"/>
                </mxCell>
                <mxCell id="193" style="edgeStyle=none;html=1;exitX=1;exitY=1;exitDx=0;exitDy=0;entryX=0;entryY=0.5;entryDx=0;entryDy=0;endArrow=none;endFill=0;" parent="1" source="191" target="2" edge="1">
                    <mxGeometry relative="1" as="geometry"/>
                </mxCell>
                <mxCell id="198" style="edgeStyle=none;html=1;exitX=0;exitY=0.5;exitDx=0;exitDy=0;entryX=1;entryY=1;entryDx=0;entryDy=0;endArrow=none;endFill=0;" parent="1" source="191" target="197" edge="1">
                    <mxGeometry relative="1" as="geometry"/>
                </mxCell>
                <mxCell id="214" style="edgeStyle=none;html=1;exitX=0;exitY=0.5;exitDx=0;exitDy=0;entryX=1;entryY=0;entryDx=0;entryDy=0;endArrow=none;endFill=0;" parent="1" source="191" target="213" edge="1">
                    <mxGeometry relative="1" as="geometry"/>
                </mxCell>
                <mxCell id="191" value="Attempts" style="rhombus;whiteSpace=wrap;html=1;" parent="1" vertex="1">
                    <mxGeometry x="-150" y="-10" width="80" height="80" as="geometry"/>
                </mxCell>
                <mxCell id="194" value="M" style="text;html=1;strokeColor=none;fillColor=none;align=center;verticalAlign=middle;whiteSpace=wrap;rounded=0;" parent="1" vertex="1">
                    <mxGeometry x="-117" y="45" width="60" height="30" as="geometry"/>
                </mxCell>
                <mxCell id="195" value="N" style="text;html=1;strokeColor=none;fillColor=none;align=center;verticalAlign=middle;whiteSpace=wrap;rounded=0;" parent="1" vertex="1">
                    <mxGeometry x="-107" y="-5" width="60" height="30" as="geometry"/>
                </mxCell>
                <mxCell id="197" value="is_correct" style="ellipse;whiteSpace=wrap;html=1;" parent="1" vertex="1">
                    <mxGeometry x="-250" y="5" width="80" height="30" as="geometry"/>
                </mxCell>
                <mxCell id="199" value="is_public" style="ellipse;whiteSpace=wrap;html=1;" parent="1" vertex="1">
                    <mxGeometry x="333" y="244" width="80" height="30" as="geometry"/>
                </mxCell>
                <mxCell id="202" value="" style="shape=dataStorage;whiteSpace=wrap;html=1;fixedSize=1;size=100;rotation=-20;" parent="1" vertex="1">
                    <mxGeometry x="-34.31" y="138.25" width="20" height="23" as="geometry"/>
                </mxCell>
                <mxCell id="203" value="" style="shape=dataStorage;whiteSpace=wrap;html=1;fixedSize=1;size=100;rotation=-70;" parent="1" vertex="1">
                    <mxGeometry x="55.69" y="145.25" width="20" height="23" as="geometry"/>
                </mxCell>
                <mxCell id="205" style="edgeStyle=none;html=1;exitX=1;exitY=1;exitDx=0;exitDy=0;entryX=0.5;entryY=0;entryDx=0;entryDy=0;endArrow=none;endFill=0;" parent="1" source="206" edge="1">
                    <mxGeometry relative="1" as="geometry">
                        <mxPoint x="-21" y="-40" as="targetPoint"/>
                    </mxGeometry>
                </mxCell>
                <mxCell id="206" value="fen" style="ellipse;whiteSpace=wrap;html=1;" parent="1" vertex="1">
                    <mxGeometry x="-130" y="-70" width="80" height="30" as="geometry"/>
                </mxCell>
                <mxCell id="207" style="edgeStyle=none;html=1;exitX=1;exitY=1;exitDx=0;exitDy=0;endArrow=none;endFill=0;entryX=0.5;entryY=0;entryDx=0;entryDy=0;" parent="1" source="208" edge="1">
                    <mxGeometry relative="1" as="geometry">
                        <mxPoint x="-21" y="-40" as="targetPoint"/>
                    </mxGeometry>
                </mxCell>
                <mxCell id="208" value="movelist" style="ellipse;whiteSpace=wrap;html=1;" parent="1" vertex="1">
                    <mxGeometry x="-137" y="-103" width="80" height="30" as="geometry"/>
                </mxCell>
                <mxCell id="209" style="edgeStyle=none;html=1;exitX=0;exitY=1;exitDx=0;exitDy=0;endArrow=none;endFill=0;entryX=0.5;entryY=0;entryDx=0;entryDy=0;" parent="1" source="210" edge="1">
                    <mxGeometry relative="1" as="geometry">
                        <mxPoint x="-21" y="-40" as="targetPoint"/>
                    </mxGeometry>
                </mxCell>
                <mxCell id="210" value="rating" style="ellipse;whiteSpace=wrap;html=1;" parent="1" vertex="1">
                    <mxGeometry x="-15" y="-73" width="80" height="30" as="geometry"/>
                </mxCell>
                <mxCell id="212" style="edgeStyle=none;html=1;exitX=0.231;exitY=0.923;exitDx=0;exitDy=0;endArrow=none;endFill=0;entryX=0.5;entryY=0;entryDx=0;entryDy=0;exitPerimeter=0;" parent="1" source="211" target="190" edge="1">
                    <mxGeometry relative="1" as="geometry">
                        <mxPoint x="-20" y="-40" as="targetPoint"/>
                    </mxGeometry>
                </mxCell>
                <mxCell id="211" value="solve count" style="ellipse;whiteSpace=wrap;html=1;" parent="1" vertex="1">
                    <mxGeometry x="-42" y="-114" width="80" height="30" as="geometry"/>
                </mxCell>
                <mxCell id="213" value="time taken" style="ellipse;whiteSpace=wrap;html=1;" parent="1" vertex="1">
                    <mxGeometry x="-249" y="38" width="80" height="30" as="geometry"/>
                </mxCell>
                <mxCell id="215" value="id" style="ellipse;whiteSpace=wrap;html=1;fontStyle=4" parent="1" vertex="1">
                    <mxGeometry x="-110" y="-133" width="80" height="30" as="geometry"/>
                </mxCell>
                <mxCell id="218" value="player1&lt;br&gt;&lt;br&gt;&lt;br&gt;player2" style="text;html=1;align=center;verticalAlign=middle;resizable=0;points=[];autosize=1;strokeColor=none;fillColor=none;rotation=35;" parent="1" vertex="1">
                    <mxGeometry x="125" y="77" width="60" height="70" as="geometry"/>
                </mxCell>
                <mxCell id="219" value="1" style="text;html=1;align=center;verticalAlign=middle;resizable=0;points=[];autosize=1;strokeColor=none;fillColor=none;" parent="1" vertex="1">
                    <mxGeometry x="188" y="108" width="30" height="30" as="geometry"/>
                </mxCell>
                <mxCell id="220" value="1" style="text;html=1;align=center;verticalAlign=middle;resizable=0;points=[];autosize=1;strokeColor=none;fillColor=none;" parent="1" vertex="1">
                    <mxGeometry x="170" y="130" width="30" height="30" as="geometry"/>
                </mxCell>
            </root>
        </mxGraphModel>
    </diagram>
    <diagram id="KHDgAlIqXKx0K6EJpq0L" name="Relational Model">
        <mxGraphModel dx="2260" dy="1654" grid="1" gridSize="10" guides="1" tooltips="1" connect="1" arrows="1" fold="1" page="1" pageScale="1" pageWidth="850" pageHeight="1100" math="0" shadow="0">
            <root>
                <mxCell id="0"/>
                <mxCell id="1" parent="0"/>
                <mxCell id="hboSqb5Xl3xaXRTqzZCY-1" value="&lt;u&gt;username&lt;/u&gt;" style="rounded=0;whiteSpace=wrap;html=1;" vertex="1" parent="1">
                    <mxGeometry x="80" y="165" width="100" height="30" as="geometry"/>
                </mxCell>
                <mxCell id="hboSqb5Xl3xaXRTqzZCY-2" value="country" style="rounded=0;whiteSpace=wrap;html=1;" vertex="1" parent="1">
                    <mxGeometry x="280" y="165" width="100" height="30" as="geometry"/>
                </mxCell>
                <mxCell id="hboSqb5Xl3xaXRTqzZCY-3" value="password" style="rounded=0;whiteSpace=wrap;html=1;" vertex="1" parent="1">
                    <mxGeometry x="180" y="165" width="100" height="30" as="geometry"/>
                </mxCell>
                <mxCell id="hboSqb5Xl3xaXRTqzZCY-4" value="birthday" style="rounded=0;whiteSpace=wrap;html=1;" vertex="1" parent="1">
                    <mxGeometry x="380" y="165" width="100" height="30" as="geometry"/>
                </mxCell>
                <mxCell id="hboSqb5Xl3xaXRTqzZCY-5" value="email" style="rounded=0;whiteSpace=wrap;html=1;" vertex="1" parent="1">
                    <mxGeometry x="480" y="165" width="100" height="30" as="geometry"/>
                </mxCell>
                <mxCell id="hboSqb5Xl3xaXRTqzZCY-6" style="edgeStyle=orthogonalEdgeStyle;html=1;exitX=0.5;exitY=0;exitDx=0;exitDy=0;entryX=0.5;entryY=1;entryDx=0;entryDy=0;rounded=0;" edge="1" parent="1" source="hboSqb5Xl3xaXRTqzZCY-7" target="hboSqb5Xl3xaXRTqzZCY-8">
                    <mxGeometry relative="1" as="geometry"/>
                </mxCell>
                <mxCell id="hboSqb5Xl3xaXRTqzZCY-7" value="mod_team_name" style="rounded=0;whiteSpace=wrap;html=1;" vertex="1" parent="1">
                    <mxGeometry x="580" y="165" width="100" height="30" as="geometry"/>
                </mxCell>
                <mxCell id="hboSqb5Xl3xaXRTqzZCY-8" value="&lt;u&gt;team_name&lt;/u&gt;" style="rounded=0;whiteSpace=wrap;html=1;" vertex="1" parent="1">
                    <mxGeometry x="80" y="85" width="100" height="30" as="geometry"/>
                </mxCell>
                <mxCell id="hboSqb5Xl3xaXRTqzZCY-9" value="creation date" style="rounded=0;whiteSpace=wrap;html=1;" vertex="1" parent="1">
                    <mxGeometry x="180" y="85" width="100" height="30" as="geometry"/>
                </mxCell>
                <mxCell id="hboSqb5Xl3xaXRTqzZCY-10" value="&lt;u&gt;id&lt;/u&gt;" style="rounded=0;whiteSpace=wrap;html=1;" vertex="1" parent="1">
                    <mxGeometry x="80" y="265" width="100" height="30" as="geometry"/>
                </mxCell>
                <mxCell id="hboSqb5Xl3xaXRTqzZCY-11" style="edgeStyle=orthogonalEdgeStyle;html=1;exitX=0.5;exitY=0;exitDx=0;exitDy=0;entryX=0.5;entryY=1;entryDx=0;entryDy=0;rounded=0;" edge="1" parent="1" source="hboSqb5Xl3xaXRTqzZCY-12" target="hboSqb5Xl3xaXRTqzZCY-1">
                    <mxGeometry relative="1" as="geometry"/>
                </mxCell>
                <mxCell id="hboSqb5Xl3xaXRTqzZCY-12" value="mod_name" style="rounded=0;whiteSpace=wrap;html=1;" vertex="1" parent="1">
                    <mxGeometry x="280" y="265" width="100" height="30" as="geometry"/>
                </mxCell>
                <mxCell id="hboSqb5Xl3xaXRTqzZCY-13" style="edgeStyle=orthogonalEdgeStyle;html=1;exitX=0.5;exitY=0;exitDx=0;exitDy=0;entryX=0.5;entryY=1;entryDx=0;entryDy=0;rounded=0;" edge="1" parent="1" source="hboSqb5Xl3xaXRTqzZCY-14" target="hboSqb5Xl3xaXRTqzZCY-1">
                    <mxGeometry relative="1" as="geometry"/>
                </mxCell>
                <mxCell id="hboSqb5Xl3xaXRTqzZCY-14" value="creator_name" style="rounded=0;whiteSpace=wrap;html=1;fontStyle=4" vertex="1" parent="1">
                    <mxGeometry x="180" y="265" width="100" height="30" as="geometry"/>
                </mxCell>
                <mxCell id="hboSqb5Xl3xaXRTqzZCY-15" value="mod_start_date" style="rounded=0;whiteSpace=wrap;html=1;" vertex="1" parent="1">
                    <mxGeometry x="680" y="165" width="100" height="30" as="geometry"/>
                </mxCell>
                <mxCell id="hboSqb5Xl3xaXRTqzZCY-16" value="&lt;u&gt;Team&lt;/u&gt;" style="text;html=1;strokeColor=none;fillColor=none;align=center;verticalAlign=middle;whiteSpace=wrap;rounded=0;" vertex="1" parent="1">
                    <mxGeometry x="71" y="60" width="60" height="30" as="geometry"/>
                </mxCell>
                <mxCell id="hboSqb5Xl3xaXRTqzZCY-17" value="&lt;u&gt;Human&lt;/u&gt;" style="text;html=1;strokeColor=none;fillColor=none;align=center;verticalAlign=middle;whiteSpace=wrap;rounded=0;" vertex="1" parent="1">
                    <mxGeometry x="76" y="139" width="60" height="30" as="geometry"/>
                </mxCell>
                <mxCell id="hboSqb5Xl3xaXRTqzZCY-18" value="&lt;u&gt;Application&lt;/u&gt;" style="text;html=1;strokeColor=none;fillColor=none;align=center;verticalAlign=middle;whiteSpace=wrap;rounded=0;" vertex="1" parent="1">
                    <mxGeometry x="87" y="239" width="60" height="30" as="geometry"/>
                </mxCell>
                <mxCell id="hboSqb5Xl3xaXRTqzZCY-19" style="edgeStyle=orthogonalEdgeStyle;html=1;exitX=0.5;exitY=0;exitDx=0;exitDy=0;entryX=0.5;entryY=1;entryDx=0;entryDy=0;rounded=0;" edge="1" parent="1" source="hboSqb5Xl3xaXRTqzZCY-20" target="hboSqb5Xl3xaXRTqzZCY-8">
                    <mxGeometry relative="1" as="geometry"/>
                </mxCell>
                <mxCell id="hboSqb5Xl3xaXRTqzZCY-20" value="join_team_name" style="rounded=0;whiteSpace=wrap;html=1;" vertex="1" parent="1">
                    <mxGeometry x="780" y="165" width="100" height="30" as="geometry"/>
                </mxCell>
                <mxCell id="hboSqb5Xl3xaXRTqzZCY-21" value="join_date" style="rounded=0;whiteSpace=wrap;html=1;" vertex="1" parent="1">
                    <mxGeometry x="880" y="165" width="100" height="30" as="geometry"/>
                </mxCell>
                <mxCell id="hboSqb5Xl3xaXRTqzZCY-22" value="&lt;u&gt;pgn_id&lt;/u&gt;" style="rounded=0;whiteSpace=wrap;html=1;" vertex="1" parent="1">
                    <mxGeometry x="80" y="328" width="100" height="30" as="geometry"/>
                </mxCell>
                <mxCell id="hboSqb5Xl3xaXRTqzZCY-23" value="increment" style="rounded=0;whiteSpace=wrap;html=1;" vertex="1" parent="1">
                    <mxGeometry x="280" y="328" width="100" height="30" as="geometry"/>
                </mxCell>
                <mxCell id="hboSqb5Xl3xaXRTqzZCY-24" value="initial_limit" style="rounded=0;whiteSpace=wrap;html=1;fontStyle=0" vertex="1" parent="1">
                    <mxGeometry x="180" y="328" width="100" height="30" as="geometry"/>
                </mxCell>
                <mxCell id="hboSqb5Xl3xaXRTqzZCY-25" value="&lt;u&gt;Game&lt;/u&gt;" style="text;html=1;strokeColor=none;fillColor=none;align=center;verticalAlign=middle;whiteSpace=wrap;rounded=0;" vertex="1" parent="1">
                    <mxGeometry x="75" y="302" width="60" height="30" as="geometry"/>
                </mxCell>
                <mxCell id="hboSqb5Xl3xaXRTqzZCY-26" value="is_public" style="rounded=0;whiteSpace=wrap;html=1;" vertex="1" parent="1">
                    <mxGeometry x="380" y="328" width="100" height="30" as="geometry"/>
                </mxCell>
                <mxCell id="hboSqb5Xl3xaXRTqzZCY-27" style="edgeStyle=orthogonalEdgeStyle;html=1;exitX=0.5;exitY=0;exitDx=0;exitDy=0;entryX=0.5;entryY=1;entryDx=0;entryDy=0;rounded=0;" edge="1" parent="1" source="hboSqb5Xl3xaXRTqzZCY-29" target="hboSqb5Xl3xaXRTqzZCY-1">
                    <mxGeometry relative="1" as="geometry">
                        <mxPoint x="530" y="329" as="sourcePoint"/>
                        <mxPoint x="130" y="196.0000000000001" as="targetPoint"/>
                        <Array as="points">
                            <mxPoint x="630" y="215"/>
                            <mxPoint x="130" y="215"/>
                        </Array>
                    </mxGeometry>
                </mxCell>
                <mxCell id="hboSqb5Xl3xaXRTqzZCY-28" style="edgeStyle=orthogonalEdgeStyle;html=1;exitX=0.75;exitY=0;exitDx=0;exitDy=0;rounded=0;endArrow=none;endFill=0;" edge="1" parent="1" source="hboSqb5Xl3xaXRTqzZCY-29">
                    <mxGeometry relative="1" as="geometry">
                        <mxPoint x="930" y="272" as="targetPoint"/>
                        <Array as="points">
                            <mxPoint x="655" y="272"/>
                            <mxPoint x="930" y="272"/>
                        </Array>
                    </mxGeometry>
                </mxCell>
                <mxCell id="hboSqb5Xl3xaXRTqzZCY-29" value="player1_name" style="rounded=0;whiteSpace=wrap;html=1;" vertex="1" parent="1">
                    <mxGeometry x="580" y="328" width="100" height="30" as="geometry"/>
                </mxCell>
                <mxCell id="hboSqb5Xl3xaXRTqzZCY-30" style="edgeStyle=orthogonalEdgeStyle;html=1;exitX=0.5;exitY=0;exitDx=0;exitDy=0;entryX=0.5;entryY=1;entryDx=0;entryDy=0;rounded=0;" edge="1" parent="1" source="hboSqb5Xl3xaXRTqzZCY-32" target="hboSqb5Xl3xaXRTqzZCY-1">
                    <mxGeometry relative="1" as="geometry">
                        <mxPoint x="630" y="323" as="sourcePoint"/>
                        <mxPoint x="130" y="190.0000000000001" as="targetPoint"/>
                        <Array as="points">
                            <mxPoint x="730" y="215"/>
                            <mxPoint x="130" y="215"/>
                        </Array>
                    </mxGeometry>
                </mxCell>
                <mxCell id="hboSqb5Xl3xaXRTqzZCY-31" style="edgeStyle=orthogonalEdgeStyle;html=1;exitX=0.75;exitY=0;exitDx=0;exitDy=0;entryX=0.5;entryY=1;entryDx=0;entryDy=0;rounded=0;" edge="1" parent="1" source="hboSqb5Xl3xaXRTqzZCY-32" target="hboSqb5Xl3xaXRTqzZCY-72">
                    <mxGeometry relative="1" as="geometry">
                        <Array as="points">
                            <mxPoint x="760" y="328"/>
                            <mxPoint x="760" y="272"/>
                            <mxPoint x="1050" y="272"/>
                            <mxPoint x="1050" y="75"/>
                            <mxPoint x="130" y="75"/>
                        </Array>
                    </mxGeometry>
                </mxCell>
                <mxCell id="hboSqb5Xl3xaXRTqzZCY-32" value="player2_name" style="rounded=0;whiteSpace=wrap;html=1;" vertex="1" parent="1">
                    <mxGeometry x="680" y="328" width="100" height="30" as="geometry"/>
                </mxCell>
                <mxCell id="hboSqb5Xl3xaXRTqzZCY-33" style="edgeStyle=orthogonalEdgeStyle;html=1;exitX=0.5;exitY=1;exitDx=0;exitDy=0;entryX=0.5;entryY=1;entryDx=0;entryDy=0;rounded=0;" edge="1" parent="1" source="hboSqb5Xl3xaXRTqzZCY-34" target="hboSqb5Xl3xaXRTqzZCY-35">
                    <mxGeometry relative="1" as="geometry">
                        <Array as="points">
                            <mxPoint x="830" y="375"/>
                            <mxPoint x="40" y="375"/>
                            <mxPoint x="40" y="445"/>
                            <mxPoint x="130" y="445"/>
                        </Array>
                    </mxGeometry>
                </mxCell>
                <mxCell id="hboSqb5Xl3xaXRTqzZCY-34" value="tournament_id" style="rounded=0;whiteSpace=wrap;html=1;" vertex="1" parent="1">
                    <mxGeometry x="780" y="328" width="100" height="30" as="geometry"/>
                </mxCell>
                <mxCell id="hboSqb5Xl3xaXRTqzZCY-35" value="&lt;u&gt;tournament_id&lt;/u&gt;" style="rounded=0;whiteSpace=wrap;html=1;" vertex="1" parent="1">
                    <mxGeometry x="80" y="398" width="100" height="30" as="geometry"/>
                </mxCell>
                <mxCell id="hboSqb5Xl3xaXRTqzZCY-36" value="is_public" style="rounded=0;whiteSpace=wrap;html=1;" vertex="1" parent="1">
                    <mxGeometry x="280" y="398" width="100" height="30" as="geometry"/>
                </mxCell>
                <mxCell id="hboSqb5Xl3xaXRTqzZCY-37" value="is_rated" style="rounded=0;whiteSpace=wrap;html=1;fontStyle=0" vertex="1" parent="1">
                    <mxGeometry x="180" y="398" width="100" height="30" as="geometry"/>
                </mxCell>
                <mxCell id="hboSqb5Xl3xaXRTqzZCY-38" value="start_datetime" style="rounded=0;whiteSpace=wrap;html=1;" vertex="1" parent="1">
                    <mxGeometry x="380" y="398" width="100" height="30" as="geometry"/>
                </mxCell>
                <mxCell id="hboSqb5Xl3xaXRTqzZCY-39" value="end_datetime" style="rounded=0;whiteSpace=wrap;html=1;" vertex="1" parent="1">
                    <mxGeometry x="480" y="398" width="100" height="30" as="geometry"/>
                </mxCell>
                <mxCell id="hboSqb5Xl3xaXRTqzZCY-40" value="initial_limit" style="rounded=0;whiteSpace=wrap;html=1;" vertex="1" parent="1">
                    <mxGeometry x="580" y="398" width="100" height="30" as="geometry"/>
                </mxCell>
                <mxCell id="hboSqb5Xl3xaXRTqzZCY-41" value="increment" style="rounded=0;whiteSpace=wrap;html=1;" vertex="1" parent="1">
                    <mxGeometry x="680" y="398" width="100" height="30" as="geometry"/>
                </mxCell>
                <mxCell id="hboSqb5Xl3xaXRTqzZCY-42" value="&lt;u&gt;Tournament&lt;/u&gt;" style="text;html=1;strokeColor=none;fillColor=none;align=center;verticalAlign=middle;whiteSpace=wrap;rounded=0;" vertex="1" parent="1">
                    <mxGeometry x="90" y="372" width="60" height="30" as="geometry"/>
                </mxCell>
                <mxCell id="hboSqb5Xl3xaXRTqzZCY-43" value="is_rated" style="rounded=0;whiteSpace=wrap;html=1;fontStyle=0" vertex="1" parent="1">
                    <mxGeometry x="480" y="328" width="100" height="30" as="geometry"/>
                </mxCell>
                <mxCell id="hboSqb5Xl3xaXRTqzZCY-44" style="edgeStyle=orthogonalEdgeStyle;html=1;exitX=1;exitY=0.5;exitDx=0;exitDy=0;rounded=0;" edge="1" parent="1" source="hboSqb5Xl3xaXRTqzZCY-45">
                    <mxGeometry relative="1" as="geometry">
                        <mxPoint x="880" y="406" as="sourcePoint"/>
                        <mxPoint x="130" y="115" as="targetPoint"/>
                        <Array as="points">
                            <mxPoint x="880" y="415"/>
                            <mxPoint x="1000" y="415"/>
                            <mxPoint x="1000" y="140"/>
                            <mxPoint x="130" y="140"/>
                        </Array>
                    </mxGeometry>
                </mxCell>
                <mxCell id="hboSqb5Xl3xaXRTqzZCY-45" value="host_team_name" style="rounded=0;whiteSpace=wrap;html=1;" vertex="1" parent="1">
                    <mxGeometry x="780" y="398" width="100" height="30" as="geometry"/>
                </mxCell>
                <mxCell id="hboSqb5Xl3xaXRTqzZCY-46" value="&lt;u&gt;puzzle_id&lt;/u&gt;" style="rounded=0;whiteSpace=wrap;html=1;" vertex="1" parent="1">
                    <mxGeometry x="80" y="615" width="100" height="30" as="geometry"/>
                </mxCell>
                <mxCell id="hboSqb5Xl3xaXRTqzZCY-47" value="movelist" style="rounded=0;whiteSpace=wrap;html=1;" vertex="1" parent="1">
                    <mxGeometry x="180" y="615" width="100" height="30" as="geometry"/>
                </mxCell>
                <mxCell id="hboSqb5Xl3xaXRTqzZCY-48" value="&lt;u&gt;Puzzle&lt;/u&gt;" style="text;html=1;strokeColor=none;fillColor=none;align=center;verticalAlign=middle;whiteSpace=wrap;rounded=0;" vertex="1" parent="1">
                    <mxGeometry x="71" y="590" width="60" height="30" as="geometry"/>
                </mxCell>
                <mxCell id="hboSqb5Xl3xaXRTqzZCY-49" value="fen" style="rounded=0;whiteSpace=wrap;html=1;" vertex="1" parent="1">
                    <mxGeometry x="280" y="615" width="100" height="30" as="geometry"/>
                </mxCell>
                <mxCell id="hboSqb5Xl3xaXRTqzZCY-50" value="rating" style="rounded=0;whiteSpace=wrap;html=1;" vertex="1" parent="1">
                    <mxGeometry x="380" y="615" width="100" height="30" as="geometry"/>
                </mxCell>
                <mxCell id="hboSqb5Xl3xaXRTqzZCY-51" value="solve_count" style="rounded=0;whiteSpace=wrap;html=1;" vertex="1" parent="1">
                    <mxGeometry x="480" y="615" width="100" height="30" as="geometry"/>
                </mxCell>
                <mxCell id="hboSqb5Xl3xaXRTqzZCY-52" style="edgeStyle=orthogonalEdgeStyle;html=1;exitX=0.75;exitY=0;exitDx=0;exitDy=0;entryX=0.5;entryY=1;entryDx=0;entryDy=0;rounded=0;" edge="1" parent="1" source="hboSqb5Xl3xaXRTqzZCY-53" target="hboSqb5Xl3xaXRTqzZCY-35">
                    <mxGeometry relative="1" as="geometry">
                        <mxPoint x="140" y="435" as="targetPoint"/>
                        <Array as="points">
                            <mxPoint x="155" y="445"/>
                            <mxPoint x="130" y="445"/>
                        </Array>
                    </mxGeometry>
                </mxCell>
                <mxCell id="hboSqb5Xl3xaXRTqzZCY-53" value="&lt;u&gt;tournament_id&lt;/u&gt;" style="rounded=0;whiteSpace=wrap;html=1;" vertex="1" parent="1">
                    <mxGeometry x="80" y="475" width="100" height="30" as="geometry"/>
                </mxCell>
                <mxCell id="hboSqb5Xl3xaXRTqzZCY-54" style="edgeStyle=orthogonalEdgeStyle;html=1;exitX=0.5;exitY=1;exitDx=0;exitDy=0;entryX=0.5;entryY=1;entryDx=0;entryDy=0;rounded=0;" edge="1" parent="1" source="hboSqb5Xl3xaXRTqzZCY-55" target="hboSqb5Xl3xaXRTqzZCY-1">
                    <mxGeometry relative="1" as="geometry">
                        <Array as="points">
                            <mxPoint x="230" y="521"/>
                            <mxPoint x="10" y="521"/>
                            <mxPoint x="10" y="230"/>
                            <mxPoint x="130" y="230"/>
                        </Array>
                    </mxGeometry>
                </mxCell>
                <mxCell id="hboSqb5Xl3xaXRTqzZCY-55" value="&lt;u&gt;player_name&lt;/u&gt;" style="rounded=0;whiteSpace=wrap;html=1;" vertex="1" parent="1">
                    <mxGeometry x="180" y="475" width="100" height="30" as="geometry"/>
                </mxCell>
                <mxCell id="hboSqb5Xl3xaXRTqzZCY-56" value="ranking" style="rounded=0;whiteSpace=wrap;html=1;" vertex="1" parent="1">
                    <mxGeometry x="280" y="475" width="100" height="30" as="geometry"/>
                </mxCell>
                <mxCell id="hboSqb5Xl3xaXRTqzZCY-57" value="score" style="rounded=0;whiteSpace=wrap;html=1;" vertex="1" parent="1">
                    <mxGeometry x="380" y="475" width="100" height="30" as="geometry"/>
                </mxCell>
                <mxCell id="hboSqb5Xl3xaXRTqzZCY-58" value="performance" style="rounded=0;whiteSpace=wrap;html=1;" vertex="1" parent="1">
                    <mxGeometry x="480" y="475" width="100" height="30" as="geometry"/>
                </mxCell>
                <mxCell id="hboSqb5Xl3xaXRTqzZCY-59" style="edgeStyle=orthogonalEdgeStyle;html=1;exitX=0.5;exitY=1;exitDx=0;exitDy=0;entryX=0.5;entryY=1;entryDx=0;entryDy=0;rounded=0;" edge="1" parent="1" source="hboSqb5Xl3xaXRTqzZCY-60" target="hboSqb5Xl3xaXRTqzZCY-46">
                    <mxGeometry relative="1" as="geometry">
                        <Array as="points">
                            <mxPoint x="130" y="585"/>
                            <mxPoint x="70" y="585"/>
                            <mxPoint x="70" y="655"/>
                            <mxPoint x="130" y="655"/>
                        </Array>
                    </mxGeometry>
                </mxCell>
                <mxCell id="hboSqb5Xl3xaXRTqzZCY-60" value="&lt;u&gt;puzzle_id&lt;/u&gt;" style="rounded=0;whiteSpace=wrap;html=1;" vertex="1" parent="1">
                    <mxGeometry x="80" y="545" width="100" height="30" as="geometry"/>
                </mxCell>
                <mxCell id="hboSqb5Xl3xaXRTqzZCY-61" style="edgeStyle=orthogonalEdgeStyle;html=1;exitX=0.5;exitY=0;exitDx=0;exitDy=0;rounded=0;" edge="1" parent="1" source="hboSqb5Xl3xaXRTqzZCY-62">
                    <mxGeometry relative="1" as="geometry">
                        <mxPoint x="230" y="540" as="sourcePoint"/>
                        <mxPoint x="130" y="195" as="targetPoint"/>
                        <Array as="points">
                            <mxPoint x="230" y="521"/>
                            <mxPoint x="10" y="521"/>
                            <mxPoint x="10" y="230"/>
                            <mxPoint x="130" y="230"/>
                        </Array>
                    </mxGeometry>
                </mxCell>
                <mxCell id="hboSqb5Xl3xaXRTqzZCY-62" value="&lt;u&gt;player_name&lt;/u&gt;" style="rounded=0;whiteSpace=wrap;html=1;" vertex="1" parent="1">
                    <mxGeometry x="180" y="545" width="100" height="30" as="geometry"/>
                </mxCell>
                <mxCell id="hboSqb5Xl3xaXRTqzZCY-63" value="&lt;u&gt;Attempts&lt;/u&gt;" style="text;html=1;strokeColor=none;fillColor=none;align=center;verticalAlign=middle;whiteSpace=wrap;rounded=0;" vertex="1" parent="1">
                    <mxGeometry x="71" y="520" width="60" height="30" as="geometry"/>
                </mxCell>
                <mxCell id="hboSqb5Xl3xaXRTqzZCY-64" value="is_correct" style="rounded=0;whiteSpace=wrap;html=1;" vertex="1" parent="1">
                    <mxGeometry x="280" y="545" width="100" height="30" as="geometry"/>
                </mxCell>
                <mxCell id="hboSqb5Xl3xaXRTqzZCY-65" value="time_taken" style="rounded=0;whiteSpace=wrap;html=1;" vertex="1" parent="1">
                    <mxGeometry x="380" y="545" width="100" height="30" as="geometry"/>
                </mxCell>
                <mxCell id="hboSqb5Xl3xaXRTqzZCY-66" value="&lt;u&gt;Participates&lt;/u&gt;" style="text;html=1;strokeColor=none;fillColor=none;align=center;verticalAlign=middle;whiteSpace=wrap;rounded=0;" vertex="1" parent="1">
                    <mxGeometry x="90" y="452" width="60" height="30" as="geometry"/>
                </mxCell>
                <mxCell id="hboSqb5Xl3xaXRTqzZCY-67" value="&lt;u&gt;rating&lt;/u&gt;" style="rounded=0;whiteSpace=wrap;html=1;" vertex="1" parent="1">
                    <mxGeometry x="180" y="685" width="100" height="30" as="geometry"/>
                </mxCell>
                <mxCell id="hboSqb5Xl3xaXRTqzZCY-68" value="&lt;u&gt;datetime&lt;/u&gt;" style="rounded=0;whiteSpace=wrap;html=1;" vertex="1" parent="1">
                    <mxGeometry x="280" y="685" width="100" height="30" as="geometry"/>
                </mxCell>
                <mxCell id="hboSqb5Xl3xaXRTqzZCY-69" value="&lt;u&gt;History&lt;/u&gt;" style="text;html=1;strokeColor=none;fillColor=none;align=center;verticalAlign=middle;whiteSpace=wrap;rounded=0;" vertex="1" parent="1">
                    <mxGeometry x="71" y="660" width="60" height="30" as="geometry"/>
                </mxCell>
                <mxCell id="hboSqb5Xl3xaXRTqzZCY-70" style="edgeStyle=orthogonalEdgeStyle;html=1;exitX=0;exitY=0.5;exitDx=0;exitDy=0;endArrow=none;endFill=0;rounded=0;" edge="1" parent="1" source="hboSqb5Xl3xaXRTqzZCY-71">
                    <mxGeometry relative="1" as="geometry">
                        <mxPoint x="10" y="495" as="targetPoint"/>
                    </mxGeometry>
                </mxCell>
                <mxCell id="hboSqb5Xl3xaXRTqzZCY-71" value="&lt;u&gt;username&lt;/u&gt;" style="rounded=0;whiteSpace=wrap;html=1;" vertex="1" parent="1">
                    <mxGeometry x="80" y="685" width="100" height="30" as="geometry"/>
                </mxCell>
                <mxCell id="hboSqb5Xl3xaXRTqzZCY-72" value="&lt;u&gt;username&lt;/u&gt;" style="rounded=0;whiteSpace=wrap;html=1;" vertex="1" parent="1">
                    <mxGeometry x="80" y="25" width="100" height="30" as="geometry"/>
                </mxCell>
                <mxCell id="hboSqb5Xl3xaXRTqzZCY-73" value="api" style="rounded=0;whiteSpace=wrap;html=1;" vertex="1" parent="1">
                    <mxGeometry x="180" y="25" width="100" height="30" as="geometry"/>
                </mxCell>
                <mxCell id="hboSqb5Xl3xaXRTqzZCY-74" value="&lt;u&gt;AI&lt;/u&gt;" style="text;html=1;strokeColor=none;fillColor=none;align=center;verticalAlign=middle;whiteSpace=wrap;rounded=0;" vertex="1" parent="1">
                    <mxGeometry x="71" width="60" height="30" as="geometry"/>
                </mxCell>
            </root>
        </mxGraphModel>
    </diagram>
</mxfile>